<svg width="4210mm" height="5410mm" version="1.1" viewBox="0 0 4210 5410" xmlns="http://www.w3.org/2000/svg">
 <g fill-rule="evenodd">
  <path d="m305.42 4760.5 3.2568-22.795 6.5124-26.051 13.026-22.795 16.282-26.051 19.538-22.795 26.051-22.794 29.307-22.795 32.564-19.538 39.077-22.795 39.077-19.538 45.589-22.794 48.846-19.538 52.103-16.283 55.358-19.538 58.615-16.282 61.872-19.538 65.127-13.026 68.384-16.282 143.28-29.307 74.896-9.7692 78.153-13.026 162.82-19.538 172.59-16.282 87.922-6.5124 91.178-6.5135 182.36-6.5123 97.692-3.2569h192.13l94.435 3.2569 91.179 3.2567 94.435 3.2556 263.77 19.538 169.33 19.538 78.153 9.7691 78.153 13.026 74.896 9.7692 74.898 16.282 71.641 13.026 65.127 16.282 65.127 13.026 61.872 19.538 58.615 16.282 55.358 19.538 52.102 16.283 48.846 19.538 22.794 9.7691 22.795 13.025 42.333 19.538 35.82 22.795 32.564 19.538 16.282 13.026 13.026 9.7692 26.051 22.794 19.538 22.795 19.538 26.051 9.7691 22.795 6.5124 26.051 3.2568 22.795-3.2568 26.051-6.5124 22.795-9.7691 26.051-39.077 45.59-26.051 22.794-29.307 22.795-32.564 22.795-35.82 19.538-42.333 22.794-45.589 19.538-48.846 19.538-52.102 19.538-55.358 16.283-58.615 19.538-61.872 16.282-65.127 16.282-65.127 13.026-146.54 29.308-74.896 13.026-78.153 9.7692-162.82 19.538-172.59 16.281-175.84 13.026-94.435 3.2556-91.179 3.2568-94.435 3.2567h-192.13l-97.692-3.2567-182.36-6.5124-91.178-6.5136-175.84-13.025-84.667-9.7691-81.409-6.5136-81.41-13.025-78.153-9.7692-149.79-26.052-68.384-16.282-68.384-13.026-65.127-16.282-61.872-16.282-58.615-19.538-55.358-16.283-52.103-19.538-48.846-19.538-45.589-19.538-39.077-22.794-39.077-19.538-32.564-22.795-16.282-9.7692-13.026-13.026-26.051-22.794-19.538-22.795-16.282-22.795-13.026-26.051-6.5124-22.795zm-110.72-6.5123 3.2568-29.308 6.5124-26.052 13.026-29.308 16.282-26.051 22.795-26.051 13.026-13.026 13.025-13.026 32.564-26.051 35.82-26.051 39.077-26.052 91.179-45.589 52.103-22.795 55.358-22.794 58.615-19.538 61.872-19.538 65.127-19.538 68.384-19.538 71.641-16.283 74.896-16.282 78.153-16.282 162.82-26.052 172.59-26.051 91.178-9.7691 91.179-6.5125 94.435-9.7691 97.692-3.2567 97.692-6.5125 97.692-3.2567 100.95-3.2568h201.9l201.9 6.5135 97.692 6.5125 94.435 3.2567 94.435 9.7691 91.179 6.5125 91.179 9.7691 87.922 13.026 84.666 13.025 162.82 26.052 78.154 16.282 74.896 16.282 71.641 16.283 68.383 19.538 65.128 19.538 61.87 19.538 58.616 19.538 55.358 22.794 52.103 22.795 48.845 22.795 42.333 22.794 39.076 26.052 35.82 26.051 32.564 26.051 26.051 26.052 22.795 26.051 16.283 26.051 13.025 29.308 3.2568 13.026 3.2556 13.026 3.2567 29.308-3.2567 29.307-6.5124 29.308-13.025 26.051-16.283 26.051-22.795 29.307-13.025 13.026-13.026 13.026-32.564 26.051-35.82 22.795-39.076 26.051-42.333 22.795-48.845 22.794-52.103 22.795-55.358 22.795-58.616 19.538-61.87 19.538-65.128 19.538-68.383 19.538-71.641 16.282-74.896 16.282-78.154 16.283-81.409 16.282-81.41 13.026-172.59 22.794-91.179 9.7692-91.179 6.5135-94.435 9.7691-94.435 6.5124-97.692 3.2568-201.9 6.5124h-201.9l-100.95-3.2568-97.692-3.2556-97.692-3.2568-97.692-6.5124-94.435-9.7691-91.179-6.5135-91.178-9.7692-84.667-13.025-87.922-9.7692-81.409-13.026-81.41-16.282-78.153-16.283-74.896-16.282-71.641-16.282-68.384-19.538-65.127-19.538-61.872-19.538-58.615-19.538-55.358-22.795-52.103-22.795-45.589-22.794-45.59-22.795-39.077-26.051-35.82-22.795-16.282-13.026-16.283-13.025-26.051-26.052-22.795-29.307-16.282-26.051-13.026-26.051-3.2556-16.283-3.2568-13.025z"/>
  <ellipse cx="2173" cy="4789.6" rx="1626.6" ry="376.11"/>
 </g>
</svg>
