<svg width="4210mm" height="4210mm" version="1.1" viewBox="0 0 4210 4210" xmlns="http://www.w3.org/2000/svg">
 <g fill="#fff">
  <path d="m634.39 946.2v-12.894l2.1486-12.894 4.2987-12.894 4.2978-10.746 4.2979-10.745 6.4473-10.745 6.4472-8.5966 8.5966-10.745 8.5965-6.4473 10.745-8.5965 21.491-10.745 10.745-4.2987 10.745-2.1486 12.894-2.1493h1944.9v384.68h-1620.4l-17.192 2.1493-15.044 4.2979-8.5965 4.2987-12.894 8.5958-6.4472 6.4472-4.2979 4.2987-6.4472 8.5958-6.4473 12.894-6.4472 17.193v8.5957l-2.1493 8.5966v1699.9l2.1493 8.5966v8.5958l6.4472 15.044 2.1494 8.5965 4.2979 6.4473 6.4472 6.4472 4.2979 6.4472 6.4472 6.4472 6.4472 4.2979 15.044 8.5966 15.044 4.2979 17.192 2.1493h1620.4v384.68h-1944.9l-12.894-2.1485-10.745-2.1494-10.745-4.2979-12.894-6.4472-8.5966-6.4472-10.745-6.4472-17.193-17.193-6.4472-8.5965-6.4473-10.745-4.2979-10.745-4.2978-12.894-4.2987-10.745-2.1486-12.894v-1209.9z" fill-rule="evenodd"/>
  <path d="m3959 2048.7 8.5965 10.745 6.4473 8.5965 12.894 21.49 2.1493 12.894 4.2979 10.746 2.1486 12.894v23.64l-2.1486 10.745-4.2979 12.894-2.1493 10.746-6.4472 10.745-6.4472 10.745-6.4473 10.746-8.5965 8.5958-797.31 797.31-8.5966 8.5958-10.745 6.4472-10.746 6.4472-10.745 6.4473-10.745 2.1493-12.894 4.2979-10.745 2.1493h-23.64l-12.894-2.1493-10.745-4.2979-12.894-2.1493-10.746-6.4473-10.745-6.4472-8.5958-6.4472-10.746-8.5958-10.745-483.54h-1255.1l-12.894-2.1493-10.745-4.2979-12.894-2.1493-21.491-12.894-8.5958-6.4472-8.5966-8.5966-8.5966-8.5957-6.4472-10.746-6.4472-8.5958-6.4472-10.746-4.2979-12.894-2.1494-10.745-2.1485-12.894v-578.1l2.1485-12.894 2.1494-12.894 4.2979-10.746 12.894-21.49 6.4472-8.5966 8.5966-10.745 8.5966-6.4473 8.5958-8.5965 10.746-6.4472 10.745-4.2979 12.894-4.2987 10.745-2.1486 25.789-4.2986h1242.2l10.745-481.39 10.746-8.5965 8.5958-8.5958 10.745-6.4472 10.746-4.2987 12.894-4.2979 10.745-2.1493 12.894-2.1486h23.64l10.745 2.1486 12.894 2.1493 10.745 4.2979 10.745 4.2987 10.746 6.4472 10.745 8.5958 8.5966 8.5965z"/>
 </g>
</svg>
