<svg width="4210mm" height="6297mm" version="1.1" viewBox="0 0 4210 6297" xmlns="http://www.w3.org/2000/svg">
 <g transform="matrix(.90428 0 0 .90428 160.37 207.97)">
  <g fill="#6b4a3c" fill-rule="evenodd">
   <path d="m3519.6 5502.6-80.322-51.114-40.162-18.255-80.322-29.208-80.323-14.604h-76.671l-32.859 3.6512-36.511 7.302-32.859 14.604-14.603 7.3019-14.604 7.3022-25.558 18.255-14.603 10.953-10.953 10.953-21.906 25.557-10.953 14.604-7.3029 14.604-10.953 29.208-10.953 32.859-3.6502 32.859-3.6514 32.859 3.6514 36.51 7.3016 32.859 10.953 36.51 14.604 36.51 14.603 36.51 21.906 36.51 51.116 65.718 65.718 65.718 36.509 29.208 40.162 25.557 40.161 21.906 80.323 36.51 80.321 21.906 40.162 3.6511 36.509 3.6512 40.162-3.6512 36.509-3.6511 32.86-7.3018 32.859-10.953 14.603-7.3019 14.604-10.954 29.208-18.255 10.953-7.3018 10.953-14.604 21.906-25.557 10.953-10.953 7.3029-14.604 14.603-32.859 7.303-29.208 3.6501-32.859 3.6515-36.51-3.6515-32.859-7.3017-36.51-10.953-36.51-29.209-73.02-21.906-32.859-25.556-36.51-25.557-32.859-32.859-32.859-32.859-29.208zm-2530.2 36.51 40.16-25.557 36.511-21.906 40.161-21.906 43.812-14.604 40.161-10.953 40.162-10.953 36.509-3.6508 40.162-3.651h36.509l36.511 7.3018 36.509 7.3022 29.209 10.953 18.255 7.3018 14.604 7.3023 25.556 18.255 14.604 10.953 10.953 10.953 21.906 25.557 7.3016 14.604 10.953 14.604 10.953 29.208 10.953 32.859 3.6514 32.859v69.369l-7.3016 36.51-10.953 36.51-14.604 36.51-18.255 32.859-18.256 36.51-25.556 36.51-58.417 65.718-32.859 29.208-40.161 29.208-36.511 25.557-80.322 43.812-80.323 29.208-80.323 14.604h-76.671l-36.509-7.3022-32.859-7.3019-32.859-10.953-29.209-14.604-29.208-18.255-10.953-10.953-10.953-10.954-21.906-25.557-10.953-14.604-7.3015-14.604-14.604-29.208-7.3016-32.859-7.3029-32.859v-32.859l3.6514-36.51 7.3017-36.51 7.3029-36.51 14.603-32.859 18.256-36.51 21.906-36.51 25.556-32.859 25.558-36.51 32.859-32.859 32.859-29.208z"/>
   <ellipse cx="505.67" cy="935.17" rx="443.6" ry="441.77"/>
   <circle cx="3824.4" cy="911.44" r="443.6"/>
  </g>
  <path d="m511.15 1698.2v-80.322l7.3029-80.322 10.953-80.322 14.603-80.322 7.3029-40.161 10.953-36.51 10.953-40.161 10.953-36.51 25.556-73.02 25.558-73.02 32.859-73.02 18.255-32.859 18.256-32.859 18.255-36.51 18.255-32.859 43.812-65.718 43.812-62.067 21.906-29.208 76.671-87.624 51.115-54.765 54.765-54.765 58.415-51.114 62.068-47.463 29.208-21.906 32.859-21.906 131.44-80.322 69.368-36.51 73.021-29.208 32.859-14.604 36.509-14.604 76.671-25.557 36.511-10.953 40.161-10.953 76.671-18.255 76.671-14.604 80.323-10.953 80.323-3.6511 43.812-3.6509h219.06l54.765 3.6509-76.671 7.3021-76.671 10.953-76.671 14.604-73.021 18.255-73.02 21.906-69.37 21.906-69.368 29.208-69.37 29.208-65.718 36.51-62.067 36.51-65.718 40.161-29.209 18.255-29.208 21.906-58.417 43.812-54.765 51.114-54.764 47.463-102.23 109.53-47.464 54.765-43.812 58.416-18.255 32.859-21.906 29.208-36.511 62.067-36.509 65.718-32.859 69.369-29.209 65.718-25.556 73.02-14.604 32.859-10.953 36.51-18.255 73.02-10.953 36.51-7.303 40.161-10.953 73.02-10.953 76.671-3.6501 80.322-3.6514 76.671v2727.3l3.6514 80.322v36.51l3.6501 40.161 10.953 76.671 10.953 76.672 18.256 73.02 18.255 73.02 25.558 73.02 25.556 69.369 29.209 69.369 14.603 32.859 18.256 32.859 18.254 32.86 18.255 32.859 36.511 62.068 40.161 62.067 43.812 58.416 47.464 58.416 51.114 54.765 51.115 51.114 54.764 51.114 54.765 47.463 116.83 87.624 65.718 40.162 62.067 36.51 65.718 32.859 69.37 29.208 32.859 14.604 36.509 14.604 69.37 25.557 73.02 18.255 36.511 10.953 36.51 7.3022 76.671 14.604 76.671 10.953 76.671 7.302-54.765 3.651h-262.87l-80.323-7.3022-80.323-10.953-76.671-14.604-40.161-7.3019-36.511-10.953-40.161-10.953-36.511-10.953-76.671-21.906-69.368-29.208-73.021-32.859-32.859-18.255-36.509-18.255-65.718-36.51-65.718-43.812-62.067-43.812-29.209-21.906-32.859-25.557-58.415-51.114-54.765-51.114-51.115-54.765-51.114-58.417-47.464-62.067-21.906-29.208-21.906-32.859-43.812-65.719-36.509-65.718-36.511-69.369-32.859-69.369-14.604-36.51-10.953-36.51-25.556-76.672-10.953-36.51-10.953-40.161-18.256-76.672-14.603-76.671-10.953-80.323-7.3029-80.322v-83.973z" fill="#845d49"/>
  <path d="m854.34 1698.2 3.6514-76.671v-40.161l3.6501-40.161 10.953-76.671 10.953-73.02 18.256-76.671 18.255-73.02 25.558-69.369 25.556-73.02 29.209-65.718 14.603-36.51 18.256-32.859 18.254-32.859 18.255-32.859 36.511-62.067 40.161-62.067 43.812-58.416 47.464-54.765 51.114-54.765 25.558-29.208 25.558-25.557 54.764-47.463 54.765-51.114 58.417-43.812 58.417-40.161 65.718-40.161 62.067-36.51 65.718-36.51 69.37-29.208 32.859-14.604 36.509-14.604 69.37-21.906 73.02-21.906 36.511-10.953 36.51-7.3021 76.671-14.604 76.671-10.953 76.671-7.3021 76.671 7.3021 76.671 10.953 76.671 14.604 73.02 18.255 146.04 43.812 69.368 29.208 65.718 29.208 131.44 73.02 62.068 40.161 29.208 18.255 32.859 21.906 58.417 43.812 54.765 51.114 54.765 47.463 51.114 54.765 47.464 54.765 47.462 54.765 43.812 58.416 21.907 32.859 18.255 29.208 40.161 62.067 18.254 32.859 18.256 32.859 32.859 69.369 29.208 65.718 25.558 73.02 10.953 32.859 32.859 109.53 7.3015 36.51 7.3016 40.161 14.604 73.02 7.3017 76.671 7.303 80.322v2884.3l-3.6515 36.51-3.6515 40.161-7.3017 76.671-14.604 76.672-14.603 73.02-43.812 146.04-25.558 69.369-29.208 69.369-18.256 32.859-14.603 32.859-18.256 32.86-18.254 32.859-40.161 62.068-40.162 62.067-43.812 58.416-47.462 58.416-47.464 54.765-51.114 51.114-54.765 51.114-54.765 47.463-58.417 43.812-62.067 43.812-62.068 40.162-65.718 36.51-65.718 32.859-65.718 29.208-36.509 14.604-32.859 14.604-73.021 25.557-73.02 18.255-36.51 10.953-36.509 7.3022-76.671 14.604-76.671 10.953-76.671 7.302-76.671-7.302-76.671-10.953-76.671-14.604-146.04-36.51-69.37-25.557-138.74-58.416-65.718-32.859-62.067-36.51-65.718-40.162-29.209-21.906-87.624-65.718-54.765-47.463-54.764-51.114-51.115-51.114-51.114-54.765-47.464-58.416-43.812-58.416-18.255-29.208-21.906-32.859-36.511-62.068-18.255-32.859-18.254-32.86-32.859-65.718-29.209-69.369-25.556-69.369-14.604-36.51-10.953-36.51-18.255-73.02-10.953-36.51-7.303-36.51-10.953-76.672-10.953-76.671-3.6501-76.671-3.6514-80.322z" fill="#a27b5f"/>
  <path d="m2727.3 1453.6v-14.604l3.65-10.953 7.303-10.953 7.3015-10.953 10.953-7.3021 7.3017-3.6511h3.6514l14.604-3.6509 10.953-3.6511 29.208 7.302 10.953 3.6511 10.953 7.3021 7.3016 10.953 7.3029 10.953 3.6501 10.953v167.95l-3.6501 10.953-7.3029 10.953-7.3016 10.953-10.953 7.3021-7.3016 3.6509-3.6514 3.651-14.605 3.6511h-25.556l-14.604-3.6511-10.953-7.3019-10.953-7.3021-7.3015-10.953-7.303-10.953-3.65-10.953v-10.953zm-1252.3-29.208v-10.953l3.6514-10.953 14.603-21.906 10.953-7.3022 3.6515-3.651 7.3015-3.651 14.604-3.6511h25.558l14.603 3.6511 10.953 7.302 10.953 7.3022 7.3028 10.953 7.3016 10.953 3.6514 10.953v167.95l-3.6514 10.953-7.3016 10.953-7.3028 10.953-10.953 7.302-7.3016 3.651h-3.6515l-14.603 3.6509-14.605 3.6511-10.953-3.6511-14.604-3.6509-10.953-3.651-10.953-7.302-14.603-21.906-3.6514-10.953v-14.604z" fill-rule="evenodd"/>
  <path d="m1595.5 1745.7h14.604l10.953 3.6509 21.906 14.604 7.3015 10.953 3.6515 3.6511v7.302l3.6501 14.604 3.6514 10.953-3.6514 14.604-3.6501 14.604-3.6515 10.953-7.3015 7.302-10.953 10.953-10.953 3.6511-10.953 7.302h-167.95l-10.953-7.302-10.953-3.6511-10.953-10.953-7.3015-7.302-3.6515-7.3019-3.6514-3.6511-3.6501-14.604v-25.557l3.6501-14.604 7.3029-10.953 7.3015-10.953 21.906-14.604 10.953-3.6509h10.953zm1281.5 14.604 32.859 10.953 10.953 10.953 7.3017 7.3021 7.3028 14.604 3.6502 10.953v29.208l-3.6502 10.953-7.3028 10.953-7.3017 10.953-21.906 14.604-10.953 3.651h-167.95l-10.953-3.651-21.906-14.604-7.3017-10.953-3.6514-3.651v-7.302l-3.6502-10.953-3.6514-14.604 3.6514-14.604 3.6502-10.953 3.6514-14.604 7.3017-7.3021 10.953-10.953 21.906-7.302 14.605-3.651z" fill="#eaeaea" fill-rule="evenodd"/>
  <path d="m1748.8 1804.1v-7.302l3.6514-7.3021 7.3016-14.604 7.3015-3.651 7.303-3.6509 7.3015-3.6511h18.255l7.3028 3.6511 14.603 7.3019 3.6514 7.302 3.6514 7.3021 3.6503 7.3021v14.604l3.6514 10.953 7.3016 10.953 10.953 10.953 7.3029 10.953 21.906 14.604 25.556 10.953 29.209 3.651 32.859 3.6512h29.208l25.558-3.6512 21.906-7.302 18.255-7.3021 18.255-10.953 7.3029-7.302 7.3016-7.3019 10.953-18.255 3.6514-7.302 3.6503-10.953 3.6514-7.302 3.6514-10.953 3.6502-7.3021 7.3028-7.302 10.953-7.3019h21.906l10.953 3.6509 10.953 7.3021 7.3016 7.302 3.6515 7.3019v7.3022l3.6501 7.302 7.303 18.255 10.953 18.255 14.603 10.953 18.256 10.953 7.3016 7.302 10.953 3.651 21.906 3.651 25.558 3.651 29.208 3.6512 32.859-3.6512 14.604-3.651h14.603l25.558-10.953 21.906-14.604 7.3016-10.953 10.953-10.953 7.3029-10.953 3.6501-14.604v-10.953l3.6514-7.3021 7.3016-14.604 7.303-3.651 14.603-7.302h18.256l21.906 10.953 3.6501 7.302 3.6515 7.3021 3.6514 7.3021v18.255l-7.3029 29.208-14.603 29.208-7.3029 14.604-7.3015 10.953-21.906 21.906-14.604 10.953-36.509 21.906-43.812 14.604-21.906 3.651h-25.557l-25.558 3.6511-32.859-3.6511h-29.208l-10.953-3.651-14.604-3.651-21.906-7.3022-25.556-7.3019-18.256-14.604-18.255-10.953-14.604-18.255-14.603 18.255-18.256 10.953-18.255 14.604-25.558 7.3019-21.906 7.3022-29.208 7.302-25.558 3.6511h-58.415l-51.115-7.3021-21.906-7.302-36.509-14.604-18.256-10.953-14.603-14.604-21.906-21.906-14.604-25.557-7.3016-14.604-7.3029-14.604-3.6501-14.604-3.6514-14.604z"/>
  <path d="m606.07 3885.2-3.6515 3.6507-160.64 262.87-7.3028 10.953-10.953 7.3022-7.3016 7.302-10.953 3.651h-29.208l-7.303-3.651-7.3016-7.302-7.3016-7.3022-3.6514-7.3019v-32.859l3.6514-10.953 3.6501-10.953 83.974-127.79-43.812-29.208-73.021 120.48-7.3016 10.953-7.3016 7.302-10.953 7.302-10.953 3.651-7.303 3.6512h-10.953l-7.3016-3.6512-10.953-3.651-7.3016-7.302-7.303-7.302-3.65-7.3022v-32.859l3.65-10.953 7.303-10.953 73.02-116.83-29.208-18.255-80.323 131.44-7.3017 10.953-7.3028 7.3023-10.953 3.6508-7.3016 7.3022h-29.208l-10.953-3.6511-7.3028-7.3019-3.6503-7.3023-3.6514-7.3018-3.6515-10.953v-21.906l3.6515-10.954 7.3017-10.953 102.23-164.3 3.6516-10.953 3.65-7.3019 171.6-273.83 7.3017-7.3019 7.3016-10.953 32.859-10.953 32.859 10.953 215.41 135.09 7.3016 7.3019 7.3016 7.3022 7.3028 10.953 3.6503 10.953v21.906l-3.6503 10.953-3.6514 10.953z" fill="#6b4a3c" fill-rule="evenodd"/>
  <path d="m3745.9 3750.1 3.6515 7.3019 160.64 259.22 7.3016 10.953 10.953 7.3019 7.3015 7.3019 10.953 3.6512 7.3028 3.651h10.953l10.953-3.651 7.3016-3.6512 7.303-7.3019 7.3015-7.3019 3.6515-7.3023v-32.859l-3.6515-10.953-7.3015-10.953-80.323-127.79 43.812-25.557 73.02 116.83 7.303 10.953 7.3016 7.302 10.953 7.3023 7.3015 3.6508 10.953 3.6511h10.953l7.3016-3.6511 10.953-3.6508 7.3029-3.6511 3.6502-7.3019 3.6514-10.953 3.6516-10.954v-18.255l-3.6516-10.953-7.3016-10.953-73.02-120.48 25.556-18.255 83.974 131.44 7.3017 10.953 7.3016 7.3019 10.953 7.3018 7.3029 3.6512 10.952 3.6511h10.953l7.303-3.6511 10.953-3.6512 7.3016-7.3018 3.6514-7.3019 3.6503-7.3022 3.6514-10.953v-21.906l-3.6514-10.953-7.3017-10.953-102.23-164.3-3.6514-7.3023-3.6516-10.953-171.6-273.83-7.3029-7.3021-7.3015-7.302-10.953-7.3021-10.953-3.651h-21.906l-21.906 7.302-215.41 135.09-7.3029 7.302-10.953 7.3022-3.6501 10.953-3.6514 10.953v21.906l3.6514 10.953 3.6501 10.953z" fill="#6b4a3c" fill-rule="evenodd"/>
 </g>
</svg>
