<?xml version="1.0" standalone="no"?>
<!DOCTYPE svg PUBLIC "-//W3C//DTD SVG 20010904//EN"
 "http://www.w3.org/TR/2001/REC-SVG-20010904/DTD/svg10.dtd">
<svg version="1.0" xmlns="http://www.w3.org/2000/svg"
 width="512.000000pt" height="512.000000pt" viewBox="0 0 512.000000 512.000000"
 preserveAspectRatio="xMidYMid meet">
<metadata>
Created by potrace 1.14, written by Peter Selinger 2001-2017
</metadata>
<g transform="translate(0.000000,512.000000) scale(0.100000,-0.100000)"
fill="#000000" stroke="none">
<path d="M2375 4903 c-61 -6 -225 -35 -265 -48 -10 -3 -27 -8 -37 -10 -51 -10
-209 -73 -296 -117 -102 -52 -257 -152 -317 -203 -137 -119 -192 -175 -293
-298 -71 -87 -72 -88 -86 -65 -8 13 -47 55 -87 93 -103 100 -172 129 -314 129
-89 1 -114 -3 -165 -23 -172 -70 -299 -226 -338 -418 -40 -198 16 -423 140
-559 88 -96 230 -166 337 -165 28 0 53 -2 57 -5 4 -2 3 -19 -1 -37 -9 -32 -17
-100 -25 -212 -3 -33 -5 -405 -6 -826 l-1 -766 -51 -18 c-29 -10 -56 -22 -61
-26 -6 -5 -16 -9 -24 -9 -27 0 -181 -78 -276 -140 -108 -70 -192 -153 -232
-231 -24 -46 -28 -65 -27 -129 0 -85 14 -124 68 -194 132 -173 422 -322 853
-437 62 -17 120 -32 130 -34 107 -22 328 -65 367 -70 28 -4 59 -9 70 -10 11
-2 38 -6 60 -9 22 -3 63 -8 90 -11 28 -4 64 -8 80 -10 17 -2 59 -6 95 -10 36
-3 83 -8 105 -10 265 -26 1092 -26 1257 0 13 2 60 6 105 10 46 3 93 8 105 10
12 3 53 7 91 10 39 3 73 8 76 9 3 2 31 7 61 11 49 5 292 48 345 60 400 89 666
185 874 314 239 148 328 328 246 497 -33 69 -122 162 -213 223 -64 43 -229
128 -293 151 -74 27 -67 -56 -72 876 -2 461 -7 859 -11 884 -4 25 -11 69 -17
99 -5 30 -9 58 -9 63 0 4 19 8 43 8 147 1 311 99 401 242 45 72 70 137 93 248
5 27 5 154 -1 194 -46 317 -317 537 -592 480 -76 -16 -105 -28 -174 -75 -60
-41 -105 -85 -142 -140 l-24 -37 -63 78 c-159 198 -393 387 -613 496 -130 64
-335 131 -456 149 -15 2 -43 7 -62 11 -39 7 -442 13 -505 7z"/>
</g>
</svg>
