<?xml version="1.0" encoding="UTF-8" standalone="no"?>
<svg
   xmlns:dc="http://purl.org/dc/elements/1.1/"
   xmlns:cc="http://creativecommons.org/ns#"
   xmlns:rdf="http://www.w3.org/1999/02/22-rdf-syntax-ns#"
   xmlns:svg="http://www.w3.org/2000/svg"
   xmlns="http://www.w3.org/2000/svg"
   xmlns:sodipodi="http://sodipodi.sourceforge.net/DTD/sodipodi-0.dtd"
   xmlns:inkscape="http://www.inkscape.org/namespaces/inkscape"
   width="4210mm"
   height="6297mm"
   viewBox="0 0 4210 6297"
   version="1.1"
   id="svg8"
   inkscape:version="1.0.2-2 (e86c870879, 2021-01-15)"
   sodipodi:docname="topo.svg">
  <defs
     id="defs2">
    <pattern
       id="EMFhbasepattern"
       patternUnits="userSpaceOnUse"
       width="6"
       height="6"
       x="0"
       y="0" />
  </defs>
  <sodipodi:namedview
     id="base"
     pagecolor="#ffffff"
     bordercolor="#666666"
     borderopacity="1.0"
     inkscape:pageopacity="0.0"
     inkscape:pageshadow="2"
     inkscape:zoom="0.014457615"
     inkscape:cx="11231.728"
     inkscape:cy="10144.225"
     inkscape:document-units="mm"
     inkscape:current-layer="layer1"
     inkscape:document-rotation="0"
     showgrid="false"
     inkscape:window-width="1298"
     inkscape:window-height="1040"
     inkscape:window-x="311"
     inkscape:window-y="11"
     inkscape:window-maximized="0" />
  <metadata
     id="metadata5">
    <rdf:RDF>
      <cc:Work
         rdf:about="">
        <dc:format>image/svg+xml</dc:format>
        <dc:type
           rdf:resource="http://purl.org/dc/dcmitype/StillImage" />
        <dc:title></dc:title>
      </cc:Work>
    </rdf:RDF>
  </metadata>
  <g
     inkscape:label="Capa 1"
     inkscape:groupmode="layer"
     id="layer1">
    <path
       style="fill:#6b4a3c;fill-opacity:1;fill-rule:evenodd;stroke:none;stroke-width:3.49155"
       d="m 3519.5825,5502.5891 -40.1607,-25.5572 -40.1608,-25.5572 -40.1621,-18.2553 -40.1606,-14.6038 -40.1607,-14.6041 -40.1621,-7.3022 -40.1608,-7.302 h -36.5105 -40.1608 l -32.8591,3.6512 -36.5106,7.302 -32.8591,14.604 -14.6032,7.3019 -14.6045,7.3022 -25.5576,18.2549 -14.6031,10.953 -10.953,10.9531 -21.9062,25.5571 -10.953,14.6041 -7.3029,14.6043 -10.953,29.2078 -10.9531,32.8592 -3.6502,32.8594 -3.6514,32.859 3.6514,36.5102 7.3016,32.859 10.9531,36.5101 14.6045,36.5102 14.6031,36.5104 21.9062,36.5101 25.5575,32.8589 25.5576,32.8592 32.8591,32.8593 32.8592,32.8591 36.5093,29.2079 40.162,25.5572 40.1607,21.9062 40.1608,18.2551 40.162,18.2549 40.1608,10.953 40.1606,10.9531 40.1621,3.6511 36.5093,3.6512 40.1619,-3.6512 36.5093,-3.6511 32.8605,-7.3018 32.8592,-10.9531 14.6032,-7.3019 14.6045,-10.9535 29.2076,-18.2548 10.9531,-7.3018 10.953,-14.6043 21.9061,-25.5572 10.9531,-10.9529 7.3029,-14.6042 14.6031,-32.8591 7.303,-29.2083 3.6501,-32.8589 3.6515,-36.5103 -3.6515,-32.8589 -7.3017,-36.5102 -10.953,-36.5103 -14.6044,-36.5102 -14.6045,-36.5101 -21.9061,-32.8591 -25.5563,-36.5101 -25.5574,-32.8591 -32.8592,-32.8591 -32.8592,-29.2083 z m -2530.15188,36.5096 40.16028,-25.5566 36.5107,-21.9064 40.1607,-21.9061 43.8122,-14.6039 40.1607,-10.9533 40.162,-10.953 36.5093,-3.6508 40.1621,-3.651 h 36.5092 l 36.5106,7.3018 36.5092,7.3022 29.2091,10.9531 18.2547,7.3018 14.6044,7.3023 25.5563,18.2549 14.6045,10.953 10.953,10.9531 21.9061,25.5571 7.3016,14.6043 10.953,14.604 10.9531,29.2079 10.9531,32.8592 3.6514,32.8593 v 32.8591 36.5101 l -7.3016,36.5103 -10.9531,36.5102 -14.6045,36.5101 -18.2547,32.8591 -18.2559,36.5102 -25.5562,36.5101 -29.209,32.859 -29.2077,32.8591 -32.8592,29.2082 -40.1607,29.208 -36.5106,25.5573 -40.1607,21.9059 -40.1608,21.9061 -40.1619,14.6041 -40.1608,14.6042 -40.1607,7.3019 -40.1621,7.3022 h -40.1607 -36.5105 l -36.50888,-7.3022 -32.8592,-7.3019 -32.8591,-10.953 -14.6044,-7.3022 -14.6047,-7.302 -29.2075,-18.2549 -10.9531,-10.953 -10.9531,-10.9535 -21.9062,-25.5566 -10.953,-14.6043 -7.3015,-14.6042 -14.6045,-29.2079 -7.3016,-32.8593 -7.3029,-32.8591 v -32.8591 l 3.6514,-36.5101 7.3017,-36.5101 7.3029,-36.5102 14.6031,-32.8591 18.256,-36.5102 21.9061,-36.5102 25.5562,-32.8592 25.5575,-36.51 32.8592,-32.8591 32.8591,-29.2082 z"
       id="path876" />
    <ellipse
       style="fill:#6b4a3c;fill-opacity:1;fill-rule:evenodd;stroke:none;stroke-width:3.49155"
       cx="505.67206"
       cy="935.16846"
       rx="443.59839"
       ry="441.77286"
       id="ellipse878" />
    <circle
       style="fill:#6b4a3c;fill-opacity:1;fill-rule:evenodd;stroke:none;stroke-width:3.49155"
       cx="3824.446"
       cy="911.4375"
       id="ellipse880"
       r="443.59839" />
    <path
       style="fill:#845d49;fill-opacity:1;fill-rule:nonzero;stroke:none;stroke-width:3.49155"
       d="m 511.14672,1698.2309 v -80.3224 l 7.3029,-80.3222 10.9531,-80.3224 14.6032,-80.3225 7.3029,-40.161 10.953,-36.5103 10.9531,-40.161 10.953,-36.5104 25.5562,-73.0202 25.5576,-73.0204 32.8591,-73.0202 18.2546,-32.85913 18.256,-32.85916 18.2546,-36.51016 18.2547,-32.85917 43.8122,-65.71821 43.8121,-62.06719 21.9061,-29.20816 25.5576,-29.20804 51.1138,-58.4163 51.1151,-54.76522 54.76488,-54.76524 58.4152,-51.11429 62.0682,-47.46313 29.2077,-21.90607 32.8591,-21.9061 65.7183,-40.16125 65.7183,-40.16114 69.3683,-36.51019 73.0213,-29.20809 32.8591,-14.6041 36.5093,-14.60398 76.6713,-25.55714 36.5106,-10.95305 40.1607,-10.95304 76.6713,-18.25504 76.6713,-14.60409 80.3228,-10.95305 80.3228,-3.65107 43.8122,-3.650923 h 40.1607 124.135 54.7653 l 54.7651,3.650923 -76.6713,7.30213 -76.6713,10.95304 -76.6714,14.60397 -73.0211,18.25517 -73.0199,21.90608 -69.3697,21.90609 -69.3685,29.20808 -69.3696,29.20809 -65.7184,36.51019 -62.0666,36.51021 -65.7184,40.16111 -29.2091,18.25504 -29.2075,21.90608 -58.4168,43.81219 -54.7652,51.11432 -54.7639,47.4631 -51.1151,54.76523 -51.1138,54.76523 -47.4636,54.76527 -21.9062,29.20817 -21.906,29.20803 -18.2546,32.85917 -21.9061,29.20815 -36.5106,62.06732 -18.2547,32.85915 -18.2545,32.85905 -32.8593,69.36924 -29.20858,65.7184 -25.5562,73.0203 -14.6045,32.859 -10.953,36.5102 -18.2546,73.0204 -10.9531,36.51 -7.303,40.1613 -10.953,73.0202 -10.953,76.6713 -3.6501,80.3225 -3.6514,76.6713 v 2727.3084 l 3.6514,80.3223 v 36.5102 l 3.6501,40.1612 10.953,76.671 10.953,76.6718 18.2561,73.0202 18.2546,73.0204 25.5575,73.0203 25.5562,69.3693 29.20858,69.3691 14.6033,32.8592 18.256,32.8589 18.2545,32.8595 18.2547,32.8589 36.5106,62.0675 40.1607,62.067 43.8122,58.4162 47.4636,58.4165 51.1138,54.7651 25.5575,25.5573 25.5576,25.5571 54.7639,51.114 54.7652,47.4631 58.4168,43.8124 58.4166,43.812 65.7184,40.1615 62.0666,36.5101 65.7184,32.8591 69.3696,29.2079 32.8592,14.6042 36.5093,14.604 69.3697,25.5571 73.0199,18.2549 36.5107,10.9532 36.5104,7.3022 76.6714,14.6038 76.6713,10.9533 76.6713,7.302 -54.7651,3.651 h -54.7653 -124.135 -83.9729 l -80.3228,-7.3022 -80.3228,-10.953 -76.6713,-14.6041 -40.1606,-7.3019 -36.5107,-10.9531 -40.1607,-10.953 -36.5106,-10.9531 -76.6713,-21.9059 -69.3684,-29.2084 -73.0213,-32.8589 -32.859,-18.2553 -36.5093,-18.2548 -32.8592,-18.2555 -32.8591,-18.2549 -65.7183,-43.8121 -62.0668,-43.8123 -29.2091,-21.9059 -32.8591,-25.5572 -58.4152,-51.114 -54.76488,-51.1143 -51.1151,-54.7651 -51.1138,-58.4167 -47.4637,-62.0669 -21.9061,-29.2083 -21.906,-32.859 -43.8122,-65.7186 -36.5093,-65.718 -36.5106,-69.3693 -32.8591,-69.3692 -14.6045,-36.5102 -10.9531,-36.5102 -25.5562,-76.6715 -10.953,-36.5102 -10.9531,-40.1608 -18.2559,-76.6715 -14.6032,-76.6712 -10.9531,-80.3227 -7.3029,-80.3222 v -43.812 -40.1613 z"
       id="path882" />
    <path
       style="fill:#a27b5f;fill-opacity:1;fill-rule:nonzero;stroke:none;stroke-width:3.49155"
       d="m 854.34272,1698.2309 3.6514,-76.6713 v -40.1612 l 3.6501,-40.1613 10.953,-76.6713 10.953,-73.0202 18.2561,-76.6713 18.2546,-73.0204 25.5575,-69.3692 25.5562,-73.0203 29.20858,-65.7184 14.6033,-36.51008 18.256,-32.85916 18.2545,-32.85905 18.2547,-32.85915 36.5106,-62.06732 40.1607,-62.06732 43.8122,-58.4162 47.4636,-54.76527 51.1138,-54.76523 25.5575,-29.20808 25.5576,-25.55715 54.7639,-47.4631 54.7652,-51.11432 58.4168,-43.81219 58.4166,-40.16112 65.7184,-40.16111 62.0666,-36.51021 65.7184,-36.51019 69.3696,-29.20809 32.8592,-14.6041 36.5093,-14.60398 69.3697,-21.90609 73.0199,-21.90608 36.5107,-10.95305 36.5104,-7.30212 76.6714,-14.60397 76.6713,-10.95304 76.6713,-7.30213 76.6713,7.30213 76.6714,10.95304 76.6713,14.60397 73.0199,18.25517 73.0198,21.90608 73.0212,21.90609 69.3684,29.20808 65.7184,29.20809 65.7182,36.51019 65.7183,36.51021 62.0681,40.16111 29.2077,18.25504 32.8592,21.90608 58.4166,43.81219 54.7653,51.11432 54.7652,47.4631 51.1138,54.76523 47.4635,54.76523 47.4625,54.76527 21.906,29.20817 21.9061,29.20803 21.9074,32.85917 18.2547,29.20815 40.1608,62.06732 18.2545,32.85915 18.2559,32.85905 32.8592,69.36924 29.2077,65.7184 25.5576,73.0203 10.953,32.859 10.953,36.5102 21.9062,73.0204 7.3015,36.51 7.3016,40.1613 14.6044,73.0202 7.3017,76.6713 7.303,80.3225 v 76.6713 2727.3084 80.3223 l -3.6515,36.5102 -3.6515,40.1612 -7.3017,76.671 -14.6044,76.6718 -14.6031,73.0202 -21.9062,73.0204 -21.906,73.0203 -25.5576,69.3693 -29.2077,69.3691 -18.2559,32.8592 -14.6033,32.8589 -18.2559,32.8595 -18.2545,32.8589 -40.1608,62.0675 -40.1621,62.067 -43.8121,58.4162 -47.4625,58.4165 -47.4635,54.7651 -25.5576,25.5573 -25.5562,25.5571 -54.7652,51.114 -54.7653,47.4631 -58.4166,43.8124 -62.0669,43.812 -62.0681,40.1615 -65.7183,36.5101 -65.7182,32.8591 -65.7184,29.2079 -36.5092,14.6042 -32.8592,14.604 -73.0212,25.5571 -73.0198,18.2549 -36.5105,10.9532 -36.5094,7.3022 -76.6713,14.6038 -76.6714,10.9533 -76.6713,7.302 -76.6713,-7.302 -76.6713,-10.9533 -76.6714,-14.6038 -73.0211,-18.2554 -73.0199,-18.2549 -69.3697,-25.5571 -69.3685,-29.2082 -69.3696,-29.2079 -65.7184,-32.8591 -62.0666,-36.5101 -65.7184,-40.1615 -29.2091,-21.9059 -29.2075,-21.9061 -58.4168,-43.8124 -54.7652,-47.4631 -54.7639,-51.114 -51.1151,-51.1144 -51.1138,-54.7651 -47.4636,-58.4165 -21.9062,-29.208 -21.906,-29.2082 -18.2546,-29.2079 -21.9061,-32.8591 -36.5106,-62.0675 -18.2547,-32.8589 -18.2545,-32.8595 -32.8593,-65.7181 -29.20858,-69.3691 -25.5562,-69.3693 -14.6045,-36.5102 -10.953,-36.5101 -18.2546,-73.0204 -10.9531,-36.5101 -7.303,-36.5101 -10.953,-76.6718 -10.953,-76.671 -3.6501,-76.6714 -3.6514,-80.3223 z"
       id="path884" />
    <path
       style="fill:#000000;fill-opacity:1;fill-rule:evenodd;stroke:none;stroke-width:3.49155"
       d="m 2727.3132,1453.6128 v -14.604 l 3.65,-10.9531 7.303,-10.9531 7.3015,-10.9529 10.953,-7.3021 7.3017,-3.6511 h 3.6514 l 14.6045,-3.6509 10.953,-3.6511 14.6032,3.6511 14.6046,3.6509 10.953,3.6511 10.953,7.3021 7.3016,10.9529 7.3029,10.9531 3.6501,10.9531 v 14.604 142.3897 10.953 l -3.6501,10.953 -7.3029,10.953 -7.3016,10.9531 -10.953,7.3021 -7.3016,3.6509 -3.6514,3.651 -14.6046,3.6511 h -14.6032 -10.953 l -14.6045,-3.6511 -10.9531,-7.3019 -10.953,-7.3021 -7.3015,-10.9531 -7.303,-10.953 -3.65,-10.953 v -10.953 z m -1252.2988,-29.2081 v -10.953 l 3.6514,-10.9531 7.3016,-10.953 7.3015,-10.953 10.9532,-7.3022 3.6515,-3.651 7.3015,-3.651 14.6045,-3.6511 h 10.953 14.6046 l 14.6031,3.6511 10.9531,7.302 10.9531,7.3022 7.3028,10.953 7.3016,10.953 3.6514,10.9531 v 10.953 142.3896 14.6041 l -3.6514,10.953 -7.3016,10.9532 -7.3028,10.953 -10.9531,7.302 -7.3016,3.651 h -3.6515 l -14.6031,3.6509 -14.6046,3.6511 -10.953,-3.6511 -14.6045,-3.6509 -10.953,-3.651 -10.9532,-7.302 -7.3015,-10.953 -7.3016,-10.9532 -3.6514,-10.953 v -14.6041 z"
       id="path886" />
    <path
       style="fill:#eaeaea;fill-opacity:1;fill-rule:evenodd;stroke:none;stroke-width:3.49155"
       d="m 1595.4979,1745.6941 h 14.6044 l 10.953,3.6509 10.9533,7.3021 10.953,7.302 7.3015,10.953 3.6515,3.6511 v 7.302 l 3.6501,14.6041 3.6514,10.9531 -3.6514,14.604 -3.6501,14.6041 -3.6515,10.953 -7.3015,7.302 -10.953,10.953 -10.9533,3.6511 -10.953,7.302 h -14.6044 -142.3897 -10.953 l -10.953,-7.302 -10.9532,-3.6511 -10.953,-10.953 -7.3015,-7.302 -3.6515,-7.3019 -3.6514,-3.6511 -3.6501,-14.6041 v -14.604 -10.9531 l 3.6501,-14.6041 7.3029,-10.9531 7.3015,-10.953 10.953,-7.302 10.9532,-7.3021 10.953,-3.6509 h 10.953 z m 1281.5063,14.604 10.9532,3.651 10.953,3.6511 10.953,3.6509 10.953,10.953 7.3017,7.3021 3.6514,7.3021 3.6514,7.302 3.6502,10.9531 v 14.6041 14.6041 l -3.6502,10.953 -7.3028,10.953 -7.3017,10.953 -10.953,7.302 -10.953,7.3021 -10.953,3.651 h -10.9532 -142.3895 -14.6046 l -10.953,-3.651 -10.953,-7.3021 -10.953,-7.302 -7.3017,-10.953 -3.6514,-3.651 v -7.302 l -3.6502,-10.953 -3.6514,-14.6041 3.6514,-14.6041 3.6502,-10.9531 3.6514,-14.6041 7.3017,-7.3021 10.953,-10.953 10.953,-3.6509 10.953,-3.6511 14.6046,-3.651 z"
       id="path888" />
    <path
       style="fill:#000000;fill-opacity:1;fill-rule:nonzero;stroke:none;stroke-width:3.49155"
       d="m 1748.8406,1804.1103 v -7.302 l 3.6514,-7.3021 7.3016,-14.6041 7.3015,-3.651 7.303,-3.6509 7.3015,-3.6511 h 7.3016 10.9532 l 7.3028,3.6511 14.6032,7.3019 3.6514,7.302 3.6514,7.3021 3.6503,7.3021 v 7.302 7.3021 l 3.6514,10.9531 7.3016,10.953 10.953,10.9531 7.3029,10.953 21.9061,14.6039 25.5563,10.9531 29.209,3.651 32.8591,3.6512 h 29.2077 l 25.5575,-3.6512 21.9061,-7.302 18.2546,-7.3021 18.2547,-10.953 7.3029,-7.302 7.3016,-7.3019 10.953,-18.2552 3.6514,-7.302 3.6503,-10.9531 3.6514,-7.302 3.6514,-10.9531 3.6502,-7.3021 7.3028,-7.302 10.9531,-7.3019 h 14.6033 7.3029 l 10.953,3.6509 10.953,7.3021 7.3016,7.302 3.6515,7.3019 v 7.3022 l 3.6501,7.302 7.303,18.2551 10.953,18.2552 14.6032,10.953 18.2559,10.953 7.3016,7.302 10.953,3.651 21.9062,3.651 25.5575,3.651 29.2076,3.6512 32.8592,-3.6512 14.6044,-3.651 h 14.6033 l 25.5575,-10.9531 10.9531,-7.3019 10.953,-7.302 7.3016,-10.953 10.9531,-10.9531 7.3029,-10.953 3.6501,-14.6042 v -3.651 -7.302 l 3.6514,-7.3021 7.3016,-14.6041 7.303,-3.651 7.3014,-3.6509 7.3017,-3.6511 h 10.9531 7.3029 l 7.3016,3.6511 14.6045,7.3019 3.6501,7.302 3.6515,7.3021 3.6514,7.3021 v 7.302 10.9531 l -7.3029,29.2082 -14.6032,29.208 -7.3029,14.6042 -7.3015,10.953 -10.953,10.953 -10.9533,10.953 -14.6044,10.9531 -18.2546,10.953 -18.2546,10.953 -21.906,7.3021 -21.9063,7.302 -21.9061,3.651 h -25.5574 l -25.5576,3.6511 -32.8591,-3.6511 h -29.2077 l -10.9531,-3.651 -14.6045,-3.651 -21.906,-7.3022 -25.5562,-7.3019 -18.256,-14.6041 -18.2547,-10.953 -14.6044,-18.255 -14.6033,18.255 -18.2559,10.953 -18.2547,14.6041 -25.5575,7.3019 -21.9062,7.3022 -29.2075,7.302 -25.5577,3.6511 h -32.8591 -25.5562 l -25.5576,-3.6511 -25.5575,-3.651 -21.906,-7.302 -18.2547,-7.3021 -18.2547,-7.3021 -18.2559,-10.953 -14.6032,-14.604 -10.953,-10.953 -10.9531,-10.953 -14.6045,-25.5572 -7.3016,-14.6041 -7.3029,-14.6039 -3.6501,-14.6041 -3.6514,-14.6041 z"
       id="path890" />
    <path
       style="fill:#6b4a3c;fill-opacity:1;fill-rule:evenodd;stroke:none;stroke-width:3.49155"
       d="m 606.07402,3885.1892 -3.6515,3.6507 -160.6443,262.8733 -7.3028,10.9529 -10.953,7.3022 -7.3016,7.302 -10.9531,3.651 h -7.3016 -10.953 -10.953 l -7.303,-3.651 -7.3016,-7.302 -7.3016,-7.3022 -3.6514,-7.3019 v -10.9531 -10.9529 -10.953 l 3.6514,-10.9531 3.6501,-10.9532 83.9742,-127.7855 -43.8121,-29.2079 -73.0211,120.4834 -7.3016,10.953 -7.3016,7.302 -10.9531,7.302 -10.953,3.651 -7.303,3.6512 h -10.953 l -7.3016,-3.6512 -10.953,-3.651 -7.3016,-7.302 -7.303,-7.302 -3.65,-7.3022 v -10.953 -10.9529 -10.9531 l 3.65,-10.953 7.303,-10.953 73.0199,-116.8326 -29.2077,-18.2551 -80.3228,131.4366 -7.3017,10.9529 -7.3028,7.3023 -10.953,3.6508 -7.3016,7.3022 h -10.9531 -10.9531 -7.3016 l -10.953,-3.6511 -7.3028,-7.3019 -3.6503,-7.3023 -3.6514,-7.3018 -3.6515,-10.9531 v -10.953 -10.953 l 3.6515,-10.9535 7.3017,-10.9528 102.2287,-164.2957 3.6516,-10.9531 3.65,-7.3019 171.5986,-273.8262 7.3017,-7.3019 7.3016,-10.9532 10.953,-3.651 10.953,-3.6509 10.9531,-3.6511 10.953,3.6511 10.9531,3.6509 10.9531,3.651 215.4107,135.0876 7.3016,7.3019 7.3016,7.3022 7.3028,10.9531 3.6503,10.953 v 10.9531 10.953 l -3.6503,10.953 -3.6514,10.953 z"
       id="path892" />
    <path
       style="fill:#6b4a3c;fill-opacity:1;fill-rule:evenodd;stroke:none;stroke-width:3.49155"
       d="m 3745.9464,3750.1015 3.6515,7.3019 160.6442,259.2221 7.3016,10.9533 10.953,7.3019 7.3015,7.3019 10.9532,3.6512 7.3028,3.651 h 10.9531 l 10.953,-3.651 7.3016,-3.6512 7.303,-7.3019 7.3015,-7.3019 3.6515,-7.3023 v -10.9529 -10.9531 -10.953 l -3.6515,-10.953 -7.3015,-10.953 -80.3228,-127.7855 43.8121,-25.5571 73.0199,116.8325 7.303,10.9528 7.3016,7.302 10.953,7.3023 7.3015,3.6508 10.9531,3.6511 h 10.953 l 7.3016,-3.6511 10.953,-3.6508 7.3029,-3.6511 3.6502,-7.3019 3.6514,-10.953 3.6516,-10.9535 v -7.302 -10.9529 l -3.6516,-10.953 -7.3016,-10.953 -73.0197,-120.4835 25.5561,-18.2549 83.9742,131.4361 7.3017,10.9534 7.3016,7.3019 10.953,7.3018 7.3029,3.6512 10.9517,3.6511 h 10.953 l 7.303,-3.6511 10.953,-3.6512 7.3016,-7.3018 3.6514,-7.3019 3.6503,-7.3022 3.6514,-10.953 v -10.9531 -10.9531 l -3.6514,-10.953 -7.3017,-10.9529 -102.2275,-164.2956 -3.6514,-7.3023 -3.6516,-10.9532 -171.5973,-273.8259 -7.3029,-7.3021 -7.3015,-7.302 -10.953,-7.3021 -10.953,-3.651 h -10.9532 -10.953 l -10.953,3.651 -10.953,3.651 -215.4096,135.0876 -7.3029,7.302 -10.953,7.3022 -3.6501,10.953 -3.6514,10.9531 v 10.953 10.953 l 3.6514,10.9531 3.6501,10.953 z"
       id="path894" />
  </g>
</svg>
