<svg width="4210mm" height="5410mm" version="1.1" viewBox="0 0 4210 5410" xmlns="http://www.w3.org/2000/svg">
 <g>
  <path d="m305.42 4760.5 3.2568-22.795 6.5124-26.051 13.026-22.795 16.282-26.051 19.538-22.795 26.051-22.794 29.307-22.795 32.564-19.538 39.077-22.795 39.077-19.538 45.589-22.794 48.846-19.538 52.103-16.283 55.358-19.538 58.615-16.282 61.872-19.538 65.127-13.026 68.384-16.282 143.28-29.307 74.896-9.7692 78.153-13.026 162.82-19.538 172.59-16.282 87.922-6.5124 91.178-6.5135 182.36-6.5123 97.692-3.2569h192.13l94.435 3.2569 91.179 3.2567 94.435 3.2556 263.77 19.538 169.33 19.538 78.153 9.7691 78.153 13.026 74.896 9.7692 74.898 16.282 71.641 13.026 65.127 16.282 65.127 13.026 61.872 19.538 58.615 16.282 55.358 19.538 52.102 16.283 48.846 19.538 22.794 9.7691 22.795 13.025 42.333 19.538 35.82 22.795 32.564 19.538 16.282 13.026 13.026 9.7692 26.051 22.794 19.538 22.795 19.538 26.051 9.7691 22.795 6.5124 26.051 3.2568 22.795-3.2568 26.051-6.5124 22.795-9.7691 26.051-39.077 45.59-26.051 22.794-29.307 22.795-32.564 22.795-35.82 19.538-42.333 22.794-45.589 19.538-48.846 19.538-52.102 19.538-55.358 16.283-58.615 19.538-61.872 16.282-65.127 16.282-65.127 13.026-146.54 29.308-74.896 13.026-78.153 9.7692-162.82 19.538-172.59 16.281-175.84 13.026-94.435 3.2556-91.179 3.2568-94.435 3.2567h-192.13l-97.692-3.2567-182.36-6.5124-91.178-6.5136-175.84-13.025-84.667-9.7691-81.409-6.5136-81.41-13.025-78.153-9.7692-149.79-26.052-68.384-16.282-68.384-13.026-65.127-16.282-61.872-16.282-58.615-19.538-55.358-16.283-52.103-19.538-48.846-19.538-45.589-19.538-39.077-22.794-39.077-19.538-32.564-22.795-16.282-9.7692-13.026-13.026-26.051-22.794-19.538-22.795-16.282-22.795-13.026-26.051-6.5124-22.795zm-110.72-6.5123 3.2568-29.308 6.5124-26.052 13.026-29.308 16.282-26.051 22.795-26.051 13.026-13.026 13.025-13.026 32.564-26.051 35.82-26.051 39.077-26.052 91.179-45.589 52.103-22.795 55.358-22.794 58.615-19.538 61.872-19.538 65.127-19.538 68.384-19.538 71.641-16.283 74.896-16.282 78.153-16.282 162.82-26.052 172.59-26.051 91.178-9.7691 91.179-6.5125 94.435-9.7691 97.692-3.2567 97.692-6.5125 97.692-3.2567 100.95-3.2568h201.9l201.9 6.5135 97.692 6.5125 94.435 3.2567 94.435 9.7691 91.179 6.5125 91.179 9.7691 87.922 13.026 84.666 13.025 162.82 26.052 78.154 16.282 74.896 16.282 71.641 16.283 68.383 19.538 65.128 19.538 61.87 19.538 58.616 19.538 55.358 22.794 52.103 22.795 48.845 22.795 42.333 22.794 39.076 26.052 35.82 26.051 32.564 26.051 26.051 26.052 22.795 26.051 16.283 26.051 13.025 29.308 3.2568 13.026 3.2556 13.026 3.2567 29.308-3.2567 29.307-6.5124 29.308-13.025 26.051-16.283 26.051-22.795 29.307-13.025 13.026-13.026 13.026-32.564 26.051-35.82 22.795-39.076 26.051-42.333 22.795-48.845 22.794-52.103 22.795-55.358 22.795-58.616 19.538-61.87 19.538-65.128 19.538-68.383 19.538-71.641 16.282-74.896 16.282-78.154 16.283-81.409 16.282-81.41 13.026-172.59 22.794-91.179 9.7692-91.179 6.5135-94.435 9.7691-94.435 6.5124-97.692 3.2568-201.9 6.5124h-201.9l-100.95-3.2568-97.692-3.2556-97.692-3.2568-97.692-6.5124-94.435-9.7691-91.179-6.5135-91.178-9.7692-84.667-13.025-87.922-9.7692-81.409-13.026-81.41-16.282-78.153-16.283-74.896-16.282-71.641-16.282-68.384-19.538-65.127-19.538-61.872-19.538-58.615-19.538-55.358-22.795-52.103-22.795-45.589-22.794-45.59-22.795-39.077-26.051-35.82-22.795-16.282-13.026-16.283-13.025-26.051-26.052-22.795-29.307-16.282-26.051-13.026-26.051-3.2556-16.283-3.2568-13.025z" fill-rule="evenodd"/>
  <ellipse cx="2173" cy="4824" rx="1626.6" ry="376.11" fill-rule="evenodd"/>
  <g transform="translate(-2.6458 143.93)">
   <path d="m1357.3 2511.4 2.4263-50.946v-26.686l2.4254-26.686 7.2779-50.946 7.2779-48.52 12.131-50.946 12.13-48.519 16.982-48.519 16.981-46.094 19.408-43.668 9.7034-24.26 12.13-21.834 12.13-21.834 12.13-21.834 24.26-41.241 26.686-41.242 29.112-38.816 31.538-36.39 33.964-38.816 33.964-33.963 36.39-33.964 36.39-31.538 38.815-29.112 38.816-29.112 43.668-24.26 41.241-24.259 43.668-24.26 46.094-19.408 21.834-9.7042 24.26-9.7043 46.093-14.556 72.78-21.834 24.26-4.8517 50.946-9.7042 50.946-7.2779 50.946-4.8517 55.797 4.8517 106.74 19.408 53.371 12.13 101.89 33.964 48.52 21.834 46.093 21.834 24.26 12.13 21.834 14.556 46.094 26.685 43.668 29.112 41.242 31.538 19.408 16.981 21.834 16.982 19.408 16.982 16.981 19.408 19.408 16.982 16.981 19.408 19.408 19.408 16.981 19.408 19.408 24.259 19.408 26.686 36.39 50.946 16.982 29.112 16.981 26.686 16.982 26.686 14.556 29.112 12.13 29.112 14.556 29.112 12.13 31.538 12.13 29.112 9.7042 31.538 9.7034 31.537 14.556 63.076 7.2779 29.112 4.8526 26.686 7.278 58.224 4.8517 55.797v1166.9l-123.73 77.631-4.8516 4.852-7.278 4.852-4.8526 14.556v14.556l4.8526 14.556 77.631 123.72 2.4262 4.851 55.797 92.189v390.58l-2.4263 38.816-2.4254 38.815-4.8526 38.816-7.278 38.816-7.2779 36.389-9.7033 38.816-9.7042 36.39v-2.426l-14.556 41.242-14.556 38.816-7.278 19.407-7.278 19.408-16.982 38.816-19.408 36.39-21.834 36.389-21.834 36.39-21.834 33.964-38.816 12.13-41.241 9.703-43.668 9.705-43.668 9.703-55.797 9.704-48.52 7.278-87.335 12.131-67.927 7.278-67.928 7.277-140.71 9.704-75.205 4.853-75.206 2.425-77.631 2.426h-191.65l-55.797-2.426-53.372-2.425-106.74-4.853-104.32-9.704-21.834-2.426h-21.834l-41.242-2.426-21.834-2.425-21.834-2.426-21.834-4.852-24.26-4.853-19.408-24.26-19.408-24.259-16.981-26.685-16.982-24.261-31.538-53.372-14.556-29.112-14.556-26.685-14.556-29.112-12.13-26.685-21.834-60.65-9.7042-29.112-9.7034-29.112-7.2779-31.538-7.278-31.537-9.7042-53.372-4.8517-29.112-2.4263-26.686-4.8516-29.111v-29.112l-2.4263-26.686v-29.112z" fill="#a27b5f"/>
   <path d="m1129.3 2511.4v-53.371l2.4264-26.686 2.4262-26.686 7.278-53.372 4.8517-24.259 4.8516-26.686 2.4262-16.981 4.8518-14.556 7.2779-31.538 9.7042-31.538 9.7043-31.537 9.7033-31.538 12.13-29.112 12.13-31.538 29.112-58.224 14.556-26.686 14.556-29.112 16.982-26.686 19.408-26.686 16.982-26.686 38.815-50.946 38.816-43.668 19.408-19.408 19.408-21.834 43.668-38.816 43.668-36.39 21.834-16.982 24.259-16.981 48.52-31.538 24.259-16.982 77.632-38.815 26.686-14.556 26.686-9.7043 53.372-21.834 29.112-9.7042 26.686-7.278 58.224-16.981 29.112-4.8525 58.224-9.7033 31.538-4.8525 29.112-2.4254 31.538-2.4263 60.649-2.4263h118.87l36.39 2.4263-50.946 4.8517-50.946 7.2779-50.946 9.7042-48.519 12.13-48.52 14.556-46.093 14.556-46.094 19.408-46.094 19.408-43.668 24.26-41.241 24.259-43.668 24.26-19.408 14.556-58.224 43.668-36.39 31.538-36.39 33.964-33.964 33.963-33.964 38.816-31.538 36.39-29.112 38.816-12.13 21.834-14.556 19.408-24.26 41.241-24.259 43.668-21.834 46.094-19.408 43.668-16.981 46.094-9.7043 24.259-7.2779 24.26-12.13 48.519-7.278 24.26-4.8526 26.686-7.2779 48.52-7.2779 50.946-2.4254 53.371-2.4263 50.946v1812.2l2.4263 55.798 2.4254 55.797 7.2779 55.798 12.13 53.372 9.7034 41.241 9.7042 38.816 12.13 38.816 14.556 38.815 14.556 36.39 16.982 36.39 16.982 36.389 19.408 33.965-36.39-7.278-36.39-9.704-38.816-9.705-38.815-12.129-60.65-21.834-60.65-24.26-16.981-36.39-14.556-38.815-12.13-38.816-12.13-38.816-9.7041-33.964-7.278-33.963-7.2779-36.39-4.8517-33.964-4.8517-36.39-2.4262-36.389-2.4264-36.391v-293.54l60.65-99.466 2.4262-4.852 77.631-121.3 2.4263-7.277 2.4254-7.278v-14.556l-2.4254-7.278-4.8526-7.278-4.8517-4.853-4.8516-7.278-128.58-77.631z" fill="#845d49"/>
   <path d="m1357.3 2511.4 2.4263-50.946v-26.686l2.4254-26.686 7.2779-50.946 7.2779-48.52 12.131-50.946 12.13-48.519 16.982-48.519 16.981-46.094 19.408-43.668 9.7034-24.26 12.13-21.834 12.13-21.834 12.13-21.834 24.26-41.241 26.686-41.242 29.112-38.816 31.538-36.39 33.964-38.816 33.964-33.963 36.39-33.964 36.39-31.538 38.815-29.112 38.816-29.112 43.668-24.26 41.241-24.259 43.668-24.26 46.094-19.408 21.834-9.7042 24.26-9.7043 46.093-14.556 72.78-21.834 24.26-4.8517 50.946-9.7042 50.946-7.2779 50.946-4.8517 55.797 4.8517 106.74 19.408 53.371 12.13 101.89 33.964 48.52 21.834 46.093 21.834 24.26 12.13 21.834 14.556 46.094 26.685 43.668 29.112 41.242 31.538 19.408 16.981 21.834 16.982 19.408 16.982 16.981 19.408 19.408 16.982 16.981 19.408 19.408 19.408 16.981 19.408 19.408 24.259 19.408 26.686 36.39 50.946 16.982 29.112 16.981 26.686 16.982 26.686 14.556 29.112 12.13 29.112 14.556 29.112 12.13 31.538 12.13 29.112 9.7042 31.538 9.7034 31.537 14.556 63.076 7.2779 29.112 4.8526 26.686 7.278 58.224 4.8517 55.797v1166.9l-123.73 77.631-4.8516 4.852-7.278 4.852-4.8526 14.556v14.556l4.8526 14.556 77.631 123.72 2.4262 4.851 55.797 92.189v390.58l-2.4263 38.816-2.4254 38.815-4.8526 38.816-7.278 38.816-7.2779 36.389-9.7033 38.816-9.7042 36.39v-2.426l-12.13 36.39-12.13 36.39-14.556 36.389-14.556 33.964-46.093 12.13-43.668 9.704-82.484 16.981-72.78 14.557-72.78 14.556-82.484 12.13-123.73 16.982-111.59 14.555-104.32 12.13-101.89 7.278-50.946 2.426h-213.49l-116.45-4.852-63.075-4.852-128.58-7.278-111.6-7.278-55.797-7.278-106.74-14.556-55.797-12.129-19.408-33.965-16.982-36.389-16.982-36.39-14.556-36.39-14.556-38.815-12.13-36.39-9.7042-41.242-9.7034-38.815-9.7042-53.372-4.8517-29.112-2.4263-26.686-4.8516-29.111v-29.112l-2.4263-26.686v-29.112z" fill="#a27b5f"/>
   <path d="m830.89 2006.8 2.4263-31.538 4.8517-29.112 7.2779-29.112 9.7042-26.686 4.8517-12.13 7.278-14.556 14.556-24.259 16.982-21.834 19.408-21.834 9.7042-9.7043 9.7042-7.2779 24.259-19.408 24.26-14.556 26.686-12.131 12.13-4.8517 14.556-4.8516 14.556-2.4262 12.13-4.8517 14.556-2.4263 16.982-2.4263h48.519l16.982 2.4263 19.408 2.4263 16.982 2.4254 16.981 4.8525 33.964 14.556 16.981 7.278 14.556 9.7033 29.112 19.408 12.13 12.13 24.259 24.26 12.13 14.556 9.7033 12.13-19.408 26.686-19.408 24.26-16.982 26.686-19.408 26.686-16.982 26.686-14.556 29.112-29.112 55.797-14.556 29.112-12.13 31.538-12.13 29.112-9.7033 31.538-9.7043 31.537-9.7042 31.538-7.2779 31.538-7.278 31.537h-53.371l-31.538-4.8517-26.686-7.2779-26.686-9.7043-14.556-7.2779-12.13-4.8517-24.26-14.556-24.259-16.982-19.408-19.408-9.7034-12.13-9.7042-9.7042-16.982-21.834-7.278-12.13-7.2779-12.13-12.13-26.686-4.8517-14.556-4.8525-12.13-4.8516-14.556-2.4263-14.556-2.4254-14.556-4.8526-29.112z" fill="#6b4a3c"/>
   <path d="m3087 1824.8 9.7042-14.556 12.13-14.556 24.26-24.26 12.13-12.13 14.556-9.7042 31.538-19.408 14.556-9.7042 16.982-7.278 16.981-4.8517 19.408-4.8526 36.39-7.2779 16.981-2.4254h50.946l29.112 4.8517 29.112 7.278 26.686 9.7042 12.13 7.2779 36.39 21.834 24.26 16.981 19.408 19.408 12.13 9.7034 7.278 9.7043 16.982 24.26 9.7043 9.7034 4.8516 14.556 14.556 24.26 4.8516 14.556 4.8525 12.13 2.4254 14.556 4.8526 14.556 2.4254 14.556 2.4263 14.556v60.65l-4.8517 29.112-7.278 29.112-9.7041 26.686-7.278 14.556-7.278 12.13-14.556 24.259-16.982 21.834-19.408 21.834-9.7041 9.7043-9.7034 9.7043-24.26 16.981-12.13 7.2779-12.131 7.278-24.259 12.131-14.556 4.8516-12.13 4.8517-14.556 4.8525-14.556 2.4254-14.556 2.4263-14.556 2.4262-31.537 2.4254-19.408-2.4254-14.556-63.076-9.7034-31.537-9.7042-31.538-12.13-29.112-12.13-31.538-14.556-29.112-12.13-29.112-14.556-29.112-16.982-26.686-33.964-55.797-16.982-26.686-19.408-24.259-19.408-26.686z" fill="#6b4a3c"/>
   <path d="m2601.9 2348.9v101.89l2.4262 7.278 9.7034 14.556 7.278 4.8517 4.8526 2.4263 2.4254 2.4253 9.7041 2.4264h16.982l9.7034-2.4264 14.556-9.7033 4.8526-7.2779 4.8517-7.278 2.4262-7.278v-111.6l-2.4262-7.2779-4.8517-7.278-4.8526-7.278-7.2778-4.8516-4.8518-2.4263h-2.4262l-9.7034-2.4262-9.7042-2.4255-7.278 2.4255-9.7041 2.4262-7.278 2.4263-7.278 4.8516-9.7034 14.556-2.4262 7.2779z" fill="#a27b5f"/>
   <path d="m1129.3 2511.4v-53.371l2.4264-26.686 2.4262-26.686 7.278-53.372 4.8517-24.259 4.8516-26.686 2.4262-16.981 4.8518-14.556 7.2779-31.538 9.7042-31.538 9.7043-31.537 9.7033-31.538 12.13-29.112 12.13-31.538 29.112-58.224 14.556-26.686 14.556-29.112 16.982-26.686 19.408-26.686 16.982-26.686 38.815-50.946 38.816-43.668 19.408-19.408 19.408-21.834 43.668-38.816 43.668-36.39 21.834-16.982 24.259-16.981 48.52-31.538 24.259-16.982 77.632-38.815 26.686-14.556 26.686-9.7043 53.372-21.834 29.112-9.7042 26.686-7.278 58.224-16.981 29.112-4.8525 58.224-9.7033 31.538-4.8525 29.112-2.4254 31.538-2.4263 60.649-2.4263h118.87l36.39 2.4263-50.946 4.8517-50.946 7.2779-50.946 9.7042-48.519 12.13-48.52 14.556-46.093 14.556-46.094 19.408-46.094 19.408-43.668 24.26-41.241 24.259-43.668 24.26-19.408 14.556-58.224 43.668-36.39 31.538-36.39 33.964-33.964 33.963-33.964 38.816-31.538 36.39-29.112 38.816-12.13 21.834-14.556 19.408-24.26 41.241-24.259 43.668-21.834 46.094-19.408 43.668-16.981 46.094-9.7043 24.259-7.2779 24.26-12.13 48.519-7.278 24.26-4.8526 26.686-7.2779 48.52-7.2779 50.946-2.4254 53.371-2.4263 50.946v1812.2l2.4263 55.798 2.4254 55.797 7.2779 55.798 12.13 53.372 7.278 31.537 7.2779 31.538 9.7034 29.111 9.7042 31.539 9.7042 29.112 12.13 29.111 12.13 29.112 14.556 29.112 12.13 26.685 16.981 26.687 14.556 29.112 16.982 24.259 33.963 53.372 19.408 24.259 19.408 24.26h-4.8516l-70.354-9.703-67.927-12.131-31.538-4.851-31.538-7.278-58.224-12.131-26.686-38.815-26.686-41.241-21.834-38.816-21.834-43.668-19.408-41.242-19.408-46.093-14.556-43.668-14.556-46.094-9.7041-33.964-7.278-33.963-7.2779-36.39-4.8517-33.964-4.8517-36.39-2.4262-36.389-2.4264-36.391v-293.54l60.65-99.466 2.4262-4.852 77.631-121.3 2.4263-7.277 2.4254-7.278v-14.556l-2.4254-7.278-4.8526-7.278-4.8517-4.853-4.8516-7.278-128.58-77.631z" fill="#845d49"/>
   <g fill="#a27b5f">
    <path d="m1357.3 2511.4 2.4263-50.946v-26.686l2.4254-26.686 7.2779-50.946 7.2779-48.52 12.131-50.946 12.13-48.519 16.982-48.519 16.981-46.094 19.408-43.668 9.7034-24.26 12.13-21.834 12.13-21.834 12.13-21.834 24.26-41.241 26.686-41.242 29.112-38.816 31.538-36.39 33.964-38.816 33.964-33.963 36.39-33.964 36.39-31.538 38.815-29.112 38.816-29.112 43.668-24.26 41.241-24.259 43.668-24.26 46.094-19.408 21.834-9.7042 24.26-9.7043 46.093-14.556 72.78-21.834 24.26-4.8517 50.946-9.7042 50.946-7.2779 50.946-4.8517 55.797 4.8517 106.74 19.408 53.371 12.13 101.89 33.964 48.52 21.834 46.093 21.834 24.26 12.13 21.834 14.556 46.094 26.685 43.668 29.112 41.242 31.538 19.408 16.981 21.834 16.982 19.408 16.982 16.981 19.408 19.408 16.982 16.981 19.408 19.408 19.408 16.981 19.408 19.408 24.259 19.408 26.686 36.39 50.946 16.982 29.112 16.981 26.686 16.982 26.686 14.556 29.112 12.13 29.112 14.556 29.112 12.13 31.538 12.13 29.112 9.7042 31.538 9.7034 31.537 14.556 63.076 7.2779 29.112 4.8526 26.686 7.278 58.224 4.8517 55.797v1166.9l-123.73 77.631-4.8516 4.852-7.278 4.852-4.8526 14.556v14.556l4.8526 14.556 77.631 123.72 2.4262 4.851 55.797 92.189v390.58l-2.4263 38.816-2.4254 38.815-4.8526 38.816-7.278 38.816-7.2779 36.389-9.7033 38.816-9.7042 36.39v-2.426l-14.556 41.242-14.556 38.816-7.278 19.407-7.278 19.408-16.982 38.816-19.408 36.39-21.834 36.389-21.834 36.39-21.834 33.964-38.816 12.13-41.241 9.703-43.668 9.705-43.668 9.703-55.797 9.704-48.52 7.278-87.335 12.131-67.927 7.278-67.928 7.277-140.71 9.704-75.205 4.853-75.206 2.425-77.631 2.426h-191.65l-55.797-2.426-53.372-2.425-106.74-4.853-104.32-9.704-21.834-2.426h-21.834l-41.242-2.426-21.834-2.425-21.834-2.426-21.834-4.852-24.26-4.853-19.408-24.26-19.408-24.259-16.981-26.685-16.982-24.261-31.538-53.372-14.556-29.112-14.556-26.685-14.556-29.112-12.13-26.685-21.834-60.65-9.7042-29.112-9.7034-29.112-7.2779-31.538-7.278-31.537-9.7042-53.372-4.8517-29.112-2.4263-26.686-4.8516-29.111v-29.112l-2.4263-26.686v-29.112z"/>
    <path d="m1769.7 2329.5v104.32l2.4263 7.278 4.8516 7.2778 4.8526 7.278 7.278 4.8517 2.4253 2.4262h4.8526l9.7033 2.4264 7.278 2.4253 9.7043-2.4253 9.7041-2.4264 7.278-2.4262 7.278-4.8517 4.8516-7.278 4.8517-7.2778 2.4263-7.278v-111.6l-2.4263-7.2779-4.8517-7.2779-4.8516-7.278-7.278-4.8517-4.8526-2.4263-2.4254-2.4254-9.7041-2.4262h-16.982l-9.7033 2.4262-7.2779 4.8517-7.278 4.8517-4.8526 7.278-4.8516 7.2779-2.4263 7.2779z"/>
    <path d="m1849.8 2542.9h-101.89l-7.2779 2.4263-7.2779 4.8517-7.278 4.8517-4.8517 7.2779-2.4263 2.4263-2.4254 4.8517-2.4262 7.2778v19.408l2.4262 7.2781 4.8517 9.7033 4.8517 4.8525 7.278 7.2779 7.2779 2.4254 14.556 4.8526h94.613l9.7043-2.4263 7.278-2.4263 7.2778-2.4254 7.278-7.2779 4.8517-4.8525 2.4262-4.8517v-4.8516l2.4264-7.2781 2.4254-9.7042-2.4254-9.7043-2.4264-7.2778-2.4262-7.278-4.8517-7.2779-7.278-4.8517-7.2778-4.8517-7.278-2.4263z"/>
    <path d="m2701.3 2552.6h-104.32l-7.2779 4.8516-7.2779 2.4263-7.278 7.278-4.8526 4.8516-2.4254 4.8516v2.4264l-2.4263 9.7041-2.4262 9.7035 2.4262 7.2779 2.4263 9.7042 2.4254 7.278 4.8526 7.2779 7.278 4.8517 7.2779 4.8525 7.2779 2.4255h111.59l7.278-2.4255 7.2778-4.8525 7.278-4.8517 4.8526-7.2779 2.4253-2.4264 2.4264-4.8516 2.4262-9.7042v-16.981l-2.4262-9.7041-4.8517-7.278-4.8526-4.8516-7.278-7.278-7.2778-2.4263-7.278-4.8516z"/>
    <path d="m1951.7 2581.8v7.2779l4.8525 19.408 9.7033 19.408 4.8525 9.7043 4.8518 7.2779 14.556 14.556 9.7042 7.278 24.259 14.556 12.13 4.8516 14.556 4.8526 16.981 2.4255 16.982 2.4262h16.982l21.834-2.4262h16.981l9.7043-2.4255 9.7042-2.4263 14.556-4.8517 16.981-4.8525 12.13-9.7034 12.13-7.2779 9.7043-12.13 9.7033 12.13 12.13 7.2779 12.13 7.278 16.982 7.2779 14.556 4.8517 16.981 2.4263 19.408 2.4255 21.834 2.4262 16.981-2.4262h16.982l14.556-2.4255 14.556-4.8526 14.556-4.8516 12.13-7.278 12.13-7.2779 9.7034-7.278 14.556-14.556 9.7042-16.982 4.8517-9.7033 4.8525-9.7042 2.4254-9.7042 2.4263-9.7035v-12.13l-2.4263-4.8516-4.8516-9.7042-4.8517-2.4254-4.8526-2.4263-4.8517-2.4262h-12.13l-14.556 7.2779-2.4262 4.8526-2.4264 4.8516-2.4253 4.8516v7.278l-2.4263 9.7043-4.8517 7.2779-7.2779 7.278-4.8526 7.2779-14.556 9.7042-16.981 4.8517-19.408 4.8517-21.834 2.4263-19.408-2.4263-16.982-2.4254-14.556-2.4263-12.13-7.2779-12.13-7.278-4.8526-2.4262-4.8517-4.8517-7.278-12.13-2.4263-4.8525-2.4254-7.278-2.4262-4.8516v-4.8517l-7.2779-9.7042-7.278-7.278h-21.834l-7.2779 4.8517-4.8517 4.8526-2.4262 4.8516-2.4263 2.4263v4.8517l-2.4254 4.8516-4.8526 12.13-7.2779 12.13-9.7034 7.2779-12.13 7.278-4.8516 4.8516-7.278 2.4263-14.556 2.4263-16.982 2.4254-19.408 2.4263-21.834-2.4263h-9.7043l-9.7033-2.4254-16.982-7.278-7.2779-4.8526-7.278-4.8516-4.8517-7.2779-7.2779-7.278-4.8526-7.2779-2.4254-9.7043v-7.278l-2.4262-4.8516-4.8517-9.7042-4.8525-2.4254-9.7033-4.8525h-12.131l-4.8517 2.4262-9.7043 4.8517-2.4253 4.8526-2.4263 4.8516-2.4262 4.8516z"/>
   </g>
   <path d="m2601.9 2348.9v-9.7042l2.4262-7.2779 9.7034-14.556 7.278-4.8516 4.8526-2.4263h2.4254l9.7041-2.4262 7.278-2.4255 9.7042 2.4255 9.7034 2.4262 7.278 2.4263 7.2778 4.8516 4.8526 7.278 4.8517 7.278 2.4262 7.2779v111.6l-2.4262 7.278-4.8517 7.278-4.8526 7.2779-7.2778 4.8517-4.8518 2.4263-2.4262 2.4253-9.7034 2.4264h-16.982l-9.7041-2.4264-7.278-4.8516-7.278-4.8517-4.8517-7.2779-4.8517-7.278-2.4262-7.278v-7.2779zm-832.11-19.408v-7.2779l2.4263-7.2779 4.8516-7.2779 4.8526-7.278 7.278-4.8517 2.4253-2.4263 4.8526-2.4254 9.7033-2.4262h16.982l9.7041 2.4262 14.556 9.7034 4.8516 7.278 4.8517 7.2779 2.4263 7.2779v111.6l-2.4263 7.278-4.8517 7.2778-4.8516 7.278-7.278 4.8517-4.8526 2.4262h-2.4254l-9.7041 2.4264-9.7043 2.4253-7.278-2.4253-9.7033-2.4264-7.2779-2.4262-7.278-4.8517-4.8526-7.278-4.8516-7.2778-2.4263-7.278v-9.7043z"/>
   <path d="m1849.8 2542.9h9.7043l7.278 2.4263 14.556 9.7034 4.8517 7.2779 2.4262 2.4263v4.8517l2.4264 7.2778 2.4254 9.7043-2.4254 9.7042-2.4264 7.2781-2.4262 9.7033-4.8517 4.8525-7.278 7.2779-7.2778 2.4254-7.278 2.4263-9.7043 2.4263h-94.613l-14.556-4.8526-7.2779-2.4254-7.278-7.2779-4.8517-4.8525-2.4263-4.8517-2.4254-4.8516-2.4262-7.2781v-19.408l2.4262-7.2778 4.8517-7.278 4.8517-7.2779 14.556-9.7034 7.2779-2.4263h7.278zm851.52 9.7043h7.278l7.278 4.8516 7.2778 2.4263 7.278 7.278 4.8526 4.8516 2.4253 4.8516 2.4264 2.4264 2.4262 9.7041v16.981l-2.4262 9.7042-4.8517 7.278-4.8526 7.2779-7.278 4.8517-7.2778 4.8525-7.278 2.4255h-111.59l-7.2779-2.4255-7.2779-4.8525-7.278-4.8517-4.8526-7.2779-2.4254-2.4264v-4.8516l-2.4263-9.7042-2.4262-7.2779 2.4262-9.7035 2.4263-9.7041 2.4254-7.278 4.8526-4.8516 7.278-7.278 7.2779-2.4263 7.2779-4.8516h9.7034z" fill="#eaeaea"/>
   <path d="m1951.7 2581.8v-4.8526l2.4262-4.8516 4.8516-9.7042 4.8526-2.4254 4.8517-2.4263 4.8517-2.4262h12.131l4.8516 2.4262 9.7042 4.8517 2.4253 4.8526 2.4264 4.8516 2.4262 4.8516v7.278l2.4254 9.7043 4.8526 7.2779 7.2779 7.278 4.8517 7.2779 14.556 9.7042 16.982 7.278 19.408 2.4254 21.834 2.4263 19.408-2.4263 16.982-2.4254 14.556-2.4263 12.13-7.2779 12.13-7.278 4.8516-2.4262 4.8518-4.8517 7.2779-12.13 2.4263-4.8525 2.4263-7.278 2.4254-4.8516 2.4263-7.278 2.4262-4.8516 4.8517-4.8526 7.2779-4.8517h21.834l7.278 7.278 4.8516 4.8517 2.4263 4.8525v4.8517l2.4262 4.8516 4.8517 12.13 7.278 12.13 9.7043 7.2779 12.13 7.278 4.8517 4.8516 7.2779 2.4263 14.556 2.4263 16.982 2.4254 19.408 2.4263 21.834-2.4263 9.7041-2.4254 9.7043-2.4263 16.981-4.8517 7.278-4.8526 7.2779-4.8516 4.8526-7.2779 7.2779-7.278 4.8517-7.2779 2.4263-9.7043v-7.278l2.4253-4.8516 4.8526-9.7042 4.8517-2.4254 4.8517-2.4263 4.8525-2.4262h12.13l4.8517 2.4262 9.7043 4.8517 2.4262 4.8526 2.4254 4.8516 2.4263 4.8516v12.13l-4.8517 19.408-9.7042 19.408-4.8517 9.7043-4.8525 7.2779-14.556 14.556-9.7034 7.278-24.26 14.556-14.556 4.8516-14.556 4.8526-14.556 2.4255h-16.982l-16.981 2.4262-21.834-2.4262-19.408-2.4255h-7.278l-9.7033-2.4263-14.556-4.8517-16.982-7.2779-12.13-7.278-12.13-7.2779-9.7033-12.13-9.7043 12.13-12.13 7.2779-12.13 9.7034-16.981 4.8525-14.556 4.8517-19.408 4.8518h-16.981l-21.834 2.4262h-16.982l-33.964-4.8517-14.556-4.8526-12.13-4.8516-24.259-14.556-9.7042-7.278-7.278-7.2779-7.2779-7.278-9.7043-16.982-4.8516-9.7033-4.8517-9.7042-2.4263-9.7042-2.4262-9.7035z"/>
   <path d="m1192.4 3962.1-2.4262 4.852-60.65 99.466-46.093 75.205-4.8526 7.278-7.278 4.853-4.8517 2.425-7.2778 4.852h-19.408l-4.8525-2.426-4.8517-4.851-4.8516-4.853-2.4264-4.852v-21.834l2.4264-7.278 2.4253-7.278 55.798-87.335-29.112-16.982-48.52 80.057-4.8518 7.278-4.8517 4.852-7.2779 4.852-7.2779 2.427-4.8526 2.425h-7.2779l-4.8517-2.425-7.278-2.427-4.8517-4.852-4.8525-4.852-2.4254-4.851v-21.834l2.4254-7.278 4.8525-7.278 48.519-77.631-19.408-12.13-53.372 87.334-4.8516 4.853-4.8526 7.278-7.2779 2.425-4.8517 4.853h-19.408l-7.2779-2.426-4.8526-4.852-2.4254-4.852-2.4263-4.852-2.4262-7.278v-14.556l2.4262-7.278 4.8517-7.278 67.928-109.17 2.4263-7.278 2.4254-7.278 114.02-179.52 4.8515-7.278 4.8517-4.852 7.278-2.425 7.2779-2.427 7.278-2.426 7.278 2.426h7.2779l21.834 14.556 128.58 77.631 4.8516 7.278 4.8517 4.853 4.8526 7.278 2.4254 7.278v14.556l-2.4254 7.278-2.4263 7.277z" fill="#6b4a3c"/>
   <path d="m1597.5 4995.6h-4.8516z"/>
   <path d="m3278.7 3874.8-77.631-123.72-4.8526-14.556v-14.556l4.8526-14.556 7.278-4.852 4.8516-4.852 123.73-77.631 19.408-12.13 7.2779-2.426 7.278-2.427h14.556l7.278 2.427 7.2778 4.852 4.8526 4.852 4.8517 4.852 114.02 181.95 4.8525 12.13 67.927 109.17 4.8526 7.278 2.4254 7.279v14.555l-2.4254 7.279-2.4263 4.852-2.4263 4.851-4.8517 4.852-7.2779 2.426-4.8517 2.426-7.278-2.426h-7.2779l-4.8525-2.426-7.278-4.852-4.8517-4.851-4.8516-7.279-55.798-87.335-16.981 12.13 48.519 80.057 4.8516 4.852 2.4263 7.278v14.556l-2.4263 7.278-2.4254 4.852-2.4262 7.278-4.8517 2.426-7.278 2.426-4.8526 2.426h-7.2779l-7.278-2.426-4.8516-2.426-7.2779-4.852-4.8517-4.852-4.8526-7.277-48.519-77.632-29.112 16.982 53.372 84.909 4.8516 7.278 2.4263 7.278v21.834l-2.4263 4.852-4.8516 4.852-4.8525 4.851-4.8517 2.427-7.278 2.426-7.278-2.426h-4.8517l-7.2779-2.427-4.8526-4.851-7.2778-4.852-4.8518-7.278-50.946-80.057-55.797-92.189z" fill="#6b4a3c"/>
   <path d="m1223.9 4760.3 60.65 24.26 31.538 12.129 29.112 9.705 38.815 12.129 38.816 9.705 36.39 9.704 36.39 7.278 55.797 12.129 106.74 14.556 55.797 7.278 111.6 7.278 128.58 7.278 63.075 4.852 116.45 4.852h55.798l53.371 2.426 53.372-2.426h50.946l50.946-2.426 101.89-7.278 104.32-12.13 111.59-14.555 123.73-16.982 82.484-12.13 145.56-29.113 82.484-16.981 43.668-9.704 46.093-12.13-21.834 41.241-21.834 38.817-24.259 41.241-24.26 36.39-38.816 12.13-41.241 9.703-43.668 9.705-43.668 9.703-55.797 9.704-48.52 7.278-87.335 12.131-67.927 7.278-67.928 7.277-140.71 9.704-75.205 4.853-75.206 2.425-77.631 2.426h-191.65l-55.797-2.426-53.372-2.425-106.74-4.853-104.32-9.704-21.834-2.426h-21.834l-41.242-2.426-21.834-2.425-21.834-2.426-21.834-4.852-24.26-4.853h-4.8516l-70.354-9.703-67.927-12.131-31.538-4.851-31.538-7.278-58.224-12.131-31.537-46.093-14.556-21.834-12.13-21.834-26.686-48.52-12.13-24.259z" fill="#6b4a3c"/>
  </g>
 </g>
</svg>
