<svg width="4210mm" height="4210mm" version="1.1" viewBox="0 0 4210 4210" xmlns="http://www.w3.org/2000/svg">
 <path d="m1560 2901.4 224.88-3.7471 397.28 281.1 371.05-277.35h318.57l191.14 1195.6-839.54-468.49-858.28 468.49zm1450.5-183.65h-475.99l-382.29 277.35-386.04-277.35h-472.24l-146.17-453.5-386.04-277.35 146.17-453.5-146.17-449.75 386.04-281.1 146.17-449.75h472.24l386.04-281.1 382.29 281.1h475.99l146.17 449.75 386.04 281.1-146.17 449.75 146.17 453.5-386.04 277.35zm-1806.5-1300.5 7.4954-48.722 11.244-44.975 11.244-48.724 14.992-44.975 14.991-44.975 18.741-41.227 18.739-44.975 22.488-41.228 26.236-37.478 26.235-37.48 26.236-37.48 29.983-37.479 29.984-33.731 33.732-29.984 67.463-59.966 37.478-26.236 37.48-26.236 41.227-26.235 37.48-18.741 44.975-22.488 41.227-18.739 41.228-14.992 44.975-11.244 44.975-14.991 44.975-7.4968 48.722-7.4954 44.975-3.7484 48.724-3.7471h48.724l48.722 3.7471 48.724 3.7484 48.724 7.4954 48.722 7.4968 44.975 11.244 44.975 14.991 44.975 14.992 44.975 18.739 41.228 22.488 41.227 22.488 37.48 22.488 41.227 26.236 33.732 26.236 37.48 29.983 33.731 29.983 29.983 33.732 33.732 33.732 26.236 37.48 29.983 33.732 22.488 41.227 26.236 37.48 22.488 41.227 18.739 41.228 18.739 41.227 29.984 89.95 11.244 44.975 7.4954 44.975 7.4955 44.975 7.4968 48.724v142.42l-7.4968 48.724-7.4955 48.722-7.4954 48.724-11.244 44.975-14.992 48.724-14.992 41.227-18.739 44.975-22.488 41.227-18.739 41.228-26.236 41.227-52.471 74.958-59.968 67.463-33.732 33.732-33.731 29.984-33.732 29.983-37.48 26.236-37.478 26.235-82.455 44.975-41.227 18.741-41.228 18.739-44.975 14.992-41.227 14.991-44.975 11.244-48.724 11.244-44.975 7.4968-48.722 3.7471-44.975 3.7484h-48.724l-97.446-7.4955-48.724-7.4968-48.724-11.244-44.975-11.244-44.975-14.991-44.975-14.992-44.975-18.739-41.227-18.741-41.227-22.488-37.48-26.235-41.227-26.236-33.731-26.236-37.48-29.983-33.732-29.983-33.732-33.732-29.983-33.732-29.984-33.732-26.235-37.48-26.236-37.48-22.488-41.227-22.488-37.48-18.739-41.227-18.741-44.975-14.991-41.227-14.992-44.975-11.244-44.975-7.4954-44.975-7.4968-48.724-7.4954-44.975v-146.17zm273.6 33.731 3.7484-33.731 7.4954-33.732 11.244-33.732 7.4968-33.731 11.244-29.983 14.991-29.983 29.984-59.968 14.991-29.983 18.741-26.236 41.227-52.471 44.975-44.975 26.236-22.488 22.488-22.488 26.235-18.741 29.984-18.739 56.219-29.983 29.983-14.992 29.983-11.244 59.968-22.488 67.463-14.992 29.983-3.7471 67.463-7.4967h37.48l33.731 3.7484h33.732l33.732 7.4954 67.463 14.992 33.732 11.244 59.968 22.488 59.966 29.983 29.984 18.741 78.707 56.219 22.488 22.488 22.488 26.235 22.488 22.488 22.488 26.236 18.739 26.236 18.739 26.235 29.984 56.219 14.991 29.984 14.992 29.983 11.244 29.983 7.4954 33.731 7.4968 29.984 7.4955 33.731 7.4954 33.732 3.7484 33.732v101.19l-3.7484 33.732-7.4954 37.478-3.7484 33.731-11.244 29.984-7.4954 33.732-11.244 33.731-14.992 29.983-29.983 59.968-18.739 26.235-14.992 26.236-41.227 52.471-22.488 26.236-22.488 22.488-26.236 22.488-26.236 18.739-22.488 18.741-29.983 18.739-56.219 33.732-29.983 11.244-29.984 14.992-59.966 22.488-67.463 14.991-33.732 3.7483-29.984 3.7484h-104.94l-67.463-7.4967-67.463-14.991-33.731-11.244-29.984-11.244-33.732-14.992-56.219-29.983-29.983-14.992-26.236-18.739-52.471-41.228-22.488-22.488-44.975-44.975-22.488-26.235-18.739-26.236-18.741-26.236-33.732-59.966-11.244-26.236-14.991-29.983-11.244-33.731-7.4968-29.984-11.244-33.732-3.747-29.983-7.4968-33.732-3.747-33.732v-104.94zm-348.56 2589.8h-7.4955z" fill="#fff" fill-rule="evenodd"/>
</svg>
